<svg width="25" height="25" viewBox="0 0 25 25" fill="none" xmlns="http://www.w3.org/2000/svg">
<path d="M21.0903 0.784976L21.3232 0.552164C21.4984 0.377034 21.7064 0.238133 21.9353 0.143393C22.1642 0.0486525 22.4096 -7.24649e-05 22.6573 8.08899e-08C22.905 7.26267e-05 23.1503 0.0489412 23.3792 0.143816C23.6081 0.23869 23.816 0.377712 23.9911 0.552945C24.1662 0.728178 24.3051 0.936189 24.3999 1.1651C24.4946 1.39402 24.5434 1.63935 24.5433 1.88709C24.5432 2.13484 24.4943 2.38014 24.3995 2.609C24.3046 2.83785 24.1656 3.04578 23.9903 3.22091L23.7575 3.45216C24.1558 3.89882 24.3681 4.4809 24.351 5.07908C24.3338 5.67726 24.0885 6.24623 23.6653 6.66935L7.58409 22.7522C7.48356 22.8522 7.35771 22.9229 7.22002 22.9569L0.970025 24.5194C0.839232 24.5519 0.702237 24.5501 0.572358 24.5141C0.442478 24.478 0.324132 24.409 0.228823 24.3137C0.133514 24.2184 0.0644846 24.1 0.0284449 23.9701C-0.0075948 23.8403 -0.00941886 23.7033 0.02315 23.5725L1.58565 17.3225C1.61984 17.1854 1.69058 17.0601 1.79034 16.96L16.856 1.89435C16.7053 1.7883 16.522 1.73892 16.3384 1.75493C16.1549 1.77095 15.9829 1.85132 15.8528 1.98185L10.7091 7.12716C10.6364 7.1998 10.5502 7.25742 10.4553 7.29673C10.3604 7.33604 10.2587 7.35628 10.156 7.35628C10.0532 7.35628 9.95152 7.33604 9.85661 7.29673C9.76171 7.25742 9.67548 7.1998 9.60284 7.12716C9.5302 7.05453 9.47258 6.96829 9.43327 6.87339C9.39396 6.77848 9.37372 6.67676 9.37372 6.57404C9.37372 6.47131 9.39396 6.3696 9.43327 6.27469C9.47258 6.17978 9.5302 6.09355 9.60284 6.02091L14.7497 0.877164C15.1731 0.45375 15.7425 0.208446 16.3411 0.191594C16.9396 0.174742 17.5219 0.387619 17.9685 0.786539C18.3978 0.402849 18.9533 0.19062 19.5291 0.190332C20.1049 0.190044 20.6606 0.401717 21.0903 0.784976ZM20.0841 1.98185C19.9376 1.83539 19.7389 1.75311 19.5317 1.75311C19.3246 1.75311 19.1259 1.83539 18.9794 1.98185L3.04659 17.9115L1.85284 22.6881L6.6294 21.4944L22.5622 5.56466C22.635 5.49209 22.6927 5.40588 22.7321 5.31097C22.7715 5.21605 22.7917 5.1143 22.7917 5.01154C22.7917 4.90878 22.7715 4.80703 22.7321 4.71211C22.6927 4.6172 22.635 4.53098 22.5622 4.45841L20.0856 1.98185H20.0841Z" fill="#EEFAFF"/>
</svg>
