<svg width="58" height="57" viewBox="0 0 58 57" fill="none" xmlns="http://www.w3.org/2000/svg">
<g filter="url(#filter0_d)">
<g style="mix-blend-mode:overlay">
<path d="M45.2871 52.4258C48.8613 52.4258 50.6484 50.6387 50.6484 48.8516C50.6484 47.0645 48.8613 45.2773 47.0742 45.2773C50.6484 45.2773 52.4355 43.4902 52.4355 41.7031C52.4355 39.916 50.6484 38.1289 48.8613 38.1289C52.4355 38.1289 54.2227 36.3418 54.2227 34.5547C54.2227 32.7676 52.4258 30.9902 50.6387 30.9902C54.2129 30.9902 56 29.2129 56 27.4258C56 25.6387 54.2129 23.8516 52.4258 23.8516L38.1387 23.8516C39.0273 20.2773 39.9258 16.7129 39.9258 14.9258C39.9258 11.3516 38.1387 7.78711 37.25 6.88867C37.2305 6.86914 36.3613 6 34.5742 6C31.8984 6 31.8984 8.67578 31.8984 8.67578C31.8984 8.72461 31.0098 13.1387 31.0098 14.9258C31.0098 16.7129 27.4355 23.8516 25.6484 25.6387L23.8613 26.5273V51.5273L25.6484 52.416L45.2871 52.416V52.4258ZM20.4629 54.0371L22.0742 50.6387V27.4258L20.2871 25.6387L6.24414 25.6387C6.09766 26.8105 6 28.002 6 29.2129C6 39.8477 11.8301 49.1152 20.4629 54.0371Z" fill="white"/>
</g>
</g>
<defs>
<filter id="filter0_d" x="0" y="-1" width="58" height="58.0371" filterUnits="userSpaceOnUse" color-interpolation-filters="sRGB">
<feFlood flood-opacity="0" result="BackgroundImageFix"/>
<feColorMatrix in="SourceAlpha" type="matrix" values="0 0 0 0 0 0 0 0 0 0 0 0 0 0 0 0 0 0 127 0"/>
<feOffset dx="-2" dy="-2"/>
<feGaussianBlur stdDeviation="2"/>
<feColorMatrix type="matrix" values="0 0 0 0 0 0 0 0 0 0 0 0 0 0 0 0 0 0 0.4 0"/>
<feBlend mode="normal" in2="BackgroundImageFix" result="effect1_dropShadow"/>
<feBlend mode="normal" in="SourceGraphic" in2="effect1_dropShadow" result="shape"/>
</filter>
</defs>
</svg>
