<svg width="48" height="50" viewBox="0 0 48 50" fill="none" xmlns="http://www.w3.org/2000/svg">
<path fill-rule="evenodd" clip-rule="evenodd" d="M0 25.0426C0 38.6743 10.7452 49.725 24 49.725C37.2548 49.725 48 38.6743 48 25.0426C48 11.4108 37.2548 0.360107 24 0.360107C10.7452 0.360107 0 11.4108 0 25.0426ZM19.6 36.3554L20.0083 30.0637L20.008 30.0634L31.1369 19.7348C31.6253 19.289 31.0303 19.0716 30.3819 19.476L16.6473 28.3874L10.7147 26.4831C9.4335 26.0796 9.4243 25.1742 11.0023 24.5233L34.1203 15.3556C35.1762 14.8626 36.1953 15.6164 35.7922 17.2784L31.8552 36.3586C31.5803 37.7144 30.7837 38.0387 29.68 37.4124L23.6827 32.8555L20.8 35.7383C20.7909 35.7474 20.7819 35.7565 20.7729 35.7655C20.4505 36.0883 20.1837 36.3554 19.6 36.3554Z" fill="#F2F2F2"/>
</svg>
