<svg width="48" height="50" viewBox="0 0 48 50" fill="none" xmlns="http://www.w3.org/2000/svg">
<path fill-rule="evenodd" clip-rule="evenodd" d="M24 0.360107C10.7452 0.360107 0 11.4108 0 25.0426C0 38.6743 10.7452 49.725 24 49.725C37.2548 49.725 48 38.6743 48 25.0426C48 11.4108 37.2548 0.360107 24 0.360107ZM23.3316 21.2764L23.2812 20.4223C23.1301 18.2087 24.4563 16.1868 26.5548 15.4025C27.327 15.1236 28.6364 15.0887 29.4926 15.3328C29.8283 15.4373 30.4663 15.7859 30.9195 16.0997L31.7421 16.6749L32.6486 16.3786C33.1523 16.2217 33.8238 15.9602 34.1259 15.7859C34.4113 15.6291 34.6631 15.5419 34.6631 15.5942C34.6631 15.8905 34.042 16.9015 33.5216 17.4592C32.8165 18.2436 33.018 18.3133 34.4449 17.7904C35.3011 17.4941 35.3178 17.4941 35.15 17.8253C35.0492 17.9996 34.5288 18.6096 33.9748 19.1674C33.0347 20.126 32.9844 20.2306 32.9844 21.0324C32.9844 22.2699 32.4136 24.8495 31.8428 26.2614C30.7852 28.9107 28.5189 31.6472 26.2526 33.0242C23.063 34.9589 18.8157 35.447 15.24 34.314C14.0481 33.9306 12 32.9545 12 32.7802C12 32.7279 12.6211 32.6582 13.3766 32.6407C14.9546 32.6059 16.5326 32.1527 17.8756 31.3509L18.7822 30.7932L17.7413 30.4271C16.264 29.9042 14.9378 28.7016 14.6021 27.5686C14.5013 27.2026 14.5349 27.1852 15.475 27.1852L16.4487 27.1677L15.6261 26.7668C14.6524 26.2614 13.7627 25.4073 13.3262 24.5358C13.0073 23.9083 12.6044 22.3222 12.7219 22.2002C12.7554 22.1479 13.108 22.2525 13.5109 22.3919C14.6692 22.8277 14.8203 22.7231 14.1488 21.991C12.8897 20.6663 12.5036 18.6968 13.108 16.8317L13.3934 15.9951L14.5013 17.1281C16.7677 19.4114 19.4369 20.7709 22.4922 21.1718L23.3316 21.2764Z" fill="#F2F2F2"/>
</svg>
