<svg width="48" height="50" viewBox="0 0 48 50" fill="none" xmlns="http://www.w3.org/2000/svg">
<path fill-rule="evenodd" clip-rule="evenodd" d="M24 0.360107C10.7452 0.360107 0 11.4108 0 25.0426C0 38.6743 10.7452 49.725 24 49.725C37.2548 49.725 48 38.6743 48 25.0426C48 11.4108 37.2548 0.360107 24 0.360107ZM25.9541 32.8342C25.7175 33.0908 25.2555 33.1426 25.2555 33.1426H23.7254C23.7254 33.1426 20.3497 33.3474 17.376 30.2228C14.1331 26.8138 11.2695 20.0501 11.2695 20.0501C11.2695 20.0501 11.1043 19.6064 11.2833 19.3928C11.4849 19.1514 12.0346 19.1362 12.0346 19.1362L15.6919 19.1122C15.6919 19.1122 16.0363 19.1691 16.2829 19.3523C16.487 19.504 16.601 19.7859 16.601 19.7859C16.601 19.7859 17.192 21.2951 17.9745 22.6602C19.5033 25.326 20.2145 25.9087 20.7329 25.6231C21.4892 25.2072 21.2625 21.8551 21.2625 21.8551C21.2625 21.8551 21.2763 20.6391 20.8819 20.0968C20.5764 19.6772 20.0004 19.5546 19.7462 19.5205C19.5396 19.4926 19.8777 19.0098 20.3159 18.7937C20.9745 18.4688 22.1365 18.4498 23.51 18.4637C24.5806 18.4751 24.8886 18.5421 25.3068 18.6445C26.2774 18.8809 26.2471 19.6387 26.1817 21.2741C26.1621 21.7632 26.1394 22.3307 26.1394 22.9864C26.1394 23.1337 26.1352 23.2907 26.1308 23.4523C26.1081 24.2901 26.0821 25.2495 26.629 25.6066C26.9095 25.7886 27.5944 25.6332 29.3085 22.6956C30.1211 21.3027 30.7296 19.6658 30.7296 19.6658C30.7296 19.6658 30.8636 19.3738 31.0702 19.2487C31.2818 19.121 31.5673 19.1602 31.5673 19.1602L35.4162 19.1362C35.4162 19.1362 36.5732 18.9959 36.7597 19.5242C36.9563 20.0766 36.3278 21.3684 34.7551 23.4844C33.2611 25.4951 32.5352 26.2335 32.6043 26.8879C32.6546 27.3645 33.1264 27.7965 34.0302 28.6428C35.9206 30.4146 36.4273 31.3468 36.549 31.5707C36.5591 31.5893 36.5665 31.603 36.5719 31.6119C37.4196 33.0314 35.6316 33.1426 35.6316 33.1426L32.2121 33.1907C32.2121 33.1907 31.4784 33.3373 30.5118 32.6674C30.0054 32.3167 29.5106 31.7441 29.0393 31.1986C28.3196 30.3656 27.6548 29.5961 27.0873 29.7778C26.1344 30.0837 26.1632 32.1554 26.1632 32.1554C26.1632 32.1554 26.1707 32.5991 25.9541 32.8342Z" fill="#F2F2F2"/>
</svg>
