<svg width="48" height="50" viewBox="0 0 48 50" fill="none" xmlns="http://www.w3.org/2000/svg">
<path fill-rule="evenodd" clip-rule="evenodd" d="M24 0.360107C10.7452 0.360107 0 11.4108 0 25.0426C0 38.6743 10.7452 49.725 24 49.725C37.2548 49.725 48 38.6743 48 25.0426C48 11.4108 37.2548 0.360107 24 0.360107ZM34.0016 16.5573C35.1031 16.8681 35.9706 17.7841 36.265 18.9473C36.8 21.0554 36.8 25.4539 36.8 25.4539C36.8 25.4539 36.8 29.8524 36.265 31.9606C35.9706 33.1238 35.1031 34.0397 34.0016 34.3508C32.0054 34.9156 24 34.9156 24 34.9156C24 34.9156 15.9946 34.9156 13.9983 34.3508C12.8967 34.0397 12.0292 33.1238 11.7348 31.9606C11.2 29.8524 11.2 25.4539 11.2 25.4539C11.2 25.4539 11.2 21.0554 11.7348 18.9473C12.0292 17.7841 12.8967 16.8681 13.9983 16.5573C15.9946 15.9923 24 15.9923 24 15.9923C24 15.9923 32.0054 15.9923 34.0016 16.5573Z" fill="#F2F2F2"/>
<path d="M21.6 29.979V21.7515L28 25.8654L21.6 29.979Z" fill="#F2F2F2"/>
</svg>
